<svg width="19" height="22" viewBox="0 0 19 22" fill="none" xmlns="http://www.w3.org/2000/svg">
    <path fill-rule="evenodd" clip-rule="evenodd"
          d="M1.00081 13.6225V13.4252C1.03246 12.8413 1.23702 12.2756 1.59339 11.7863C2.18658 11.1986 2.59265 10.4784 2.76899 9.7013C2.76899 9.10067 2.76899 8.49146 2.82634 7.89083C3.12263 4.99924 6.248 3 9.33515 3H9.41161C12.4988 3 15.6241 4.99924 15.93 7.89083C15.9873 8.49146 15.93 9.10067 15.9778 9.7013C16.1565 10.4802 16.5621 11.2027 17.1534 11.7949C17.5124 12.2798 17.7173 12.8435 17.7459 13.4252V13.614C17.7673 14.3984 17.4719 15.1633 16.9144 15.7676C16.1777 16.4743 15.1779 16.9139 14.1045 17.0032C10.9566 17.3121 7.78061 17.3121 4.63275 17.0032C3.56047 16.91 2.56216 16.471 1.82278 15.7676C1.27386 15.1629 0.982505 14.4025 1.00081 13.6225Z"
          stroke="#200E32" stroke-width="1.5" stroke-linecap="round" stroke-linejoin="round"/>
    <path d="M6.96484 19.9893C7.45669 20.5544 8.17896 20.9201 8.97182 21.0055C9.76467 21.0909 10.5627 20.8889 11.1894 20.4443C11.3821 20.3128 11.5555 20.1599 11.7055 19.9893"
          stroke="#200E32" stroke-width="1.5" stroke-linecap="round" stroke-linejoin="round"/>
    <circle cx="12" cy="4" r="3.5" fill="#FD0541" stroke="white"/>
</svg>
