<svg width="19" height="20" viewBox="0 0 19 20" fill="none" xmlns="http://www.w3.org/2000/svg">
    <path fill-rule="evenodd" clip-rule="evenodd"
          d="M1.00081 11.6225V11.4252C1.03246 10.8413 1.23702 10.2756 1.59339 9.78634C2.18658 9.19863 2.59265 8.47843 2.76899 7.7013C2.76899 7.10067 2.76899 6.49146 2.82634 5.89083C3.12263 2.99924 6.248 1 9.33515 1H9.41161C12.4988 1 15.6241 2.99924 15.93 5.89083C15.9873 6.49146 15.93 7.10067 15.9778 7.7013C16.1565 8.48023 16.5621 9.20267 17.1534 9.79492C17.5124 10.2798 17.7173 10.8435 17.7459 11.4252V11.614C17.7673 12.3984 17.4719 13.1633 16.9144 13.7676C16.1777 14.4743 15.1779 14.9139 14.1045 15.0032C10.9566 15.3121 7.78061 15.3121 4.63275 15.0032C3.56047 14.91 2.56216 14.471 1.82278 13.7676C1.27386 13.1629 0.982505 12.4025 1.00081 11.6225Z"
          stroke="#200E32" stroke-width="1.5" stroke-linecap="round" stroke-linejoin="round"/>
    <path d="M6.96484 17.9893C7.45669 18.5544 8.17896 18.9201 8.97182 19.0055C9.76467 19.0909 10.5627 18.8889 11.1894 18.4443C11.3821 18.3128 11.5555 18.1599 11.7055 17.9893"
          stroke="#200E32" stroke-width="1.5" stroke-linecap="round" stroke-linejoin="round"/>
</svg>
