<svg width="84" height="84" viewBox="0 0 84 84" fill="none" xmlns="http://www.w3.org/2000/svg">
    <rect width="83.375" height="83.375" rx="20.8438" fill="url(#paint0_linear_3_54)"/>
    <path d="M68.3563 39.3361L64.8823 35.8621C64.8017 35.7815 64.706 35.7175 64.6006 35.6738C64.4952 35.6302 64.3823 35.6077 64.2683 35.6077C64.1542 35.6077 64.0413 35.6302 63.9359 35.6738C63.8306 35.7175 63.7348 35.7815 63.6542 35.8621L60.1803 39.3361C60.0996 39.4167 60.0356 39.5124 59.9919 39.6178C59.9483 39.7231 59.9258 39.8361 59.9258 39.9501V48.635C59.9258 48.7491 59.9483 48.862 59.9919 48.9674C60.0355 49.0728 60.0995 49.1685 60.1802 49.2492C60.2608 49.3299 60.3566 49.3938 60.4619 49.4375C60.5673 49.4811 60.6803 49.5035 60.7943 49.5035H67.7422C67.8563 49.5035 67.9693 49.4811 68.0746 49.4375C68.18 49.3938 68.2758 49.3299 68.3564 49.2492C68.4371 49.1685 68.5011 49.0728 68.5447 48.9674C68.5883 48.862 68.6108 48.7491 68.6107 48.635V39.9501C68.6107 39.8361 68.5883 39.7231 68.5446 39.6178C68.501 39.5124 68.437 39.4167 68.3563 39.3361Z"
          fill="white"/>
    <path d="M52.9779 28.6598H26.9232C26.8092 28.6597 26.6962 28.6822 26.5908 28.7258C26.4855 28.7694 26.3897 28.8334 26.3091 28.9141C26.2284 28.9947 26.1644 29.0905 26.1208 29.1959C26.0772 29.3012 26.0547 29.4142 26.0547 29.5282V42.5556C26.0547 42.7209 26.1019 42.8828 26.1907 43.0222C26.2794 43.1616 26.4062 43.2728 26.556 43.3427L39.5833 49.4221C39.6983 49.4757 39.8237 49.5035 39.9506 49.5035C40.0775 49.5035 40.2028 49.4757 40.3178 49.4221L53.3452 43.3427C53.495 43.2728 53.6217 43.1616 53.7105 43.0222C53.7993 42.8828 53.8465 42.7209 53.8464 42.5556V29.5282C53.8464 29.4142 53.824 29.3012 53.7804 29.1959C53.7367 29.0905 53.6728 28.9947 53.5921 28.9141C53.5115 28.8334 53.4157 28.7694 53.3103 28.7258C53.2049 28.6822 53.092 28.6597 52.9779 28.6598Z"
          fill="white"/>
    <path d="M52.9779 28.6598H26.9232C26.8092 28.6597 26.6962 28.6822 26.5908 28.7258C26.4855 28.7694 26.3897 28.8334 26.3091 28.9141C26.2284 28.9947 26.1644 29.0905 26.1208 29.1959C26.0772 29.3012 26.0547 29.4142 26.0547 29.5282V37.8981L39.5833 44.2112C39.6983 44.2648 39.8237 44.2926 39.9506 44.2926C40.0775 44.2926 40.2028 44.2648 40.3178 44.2112L53.8464 37.898V29.5282C53.8464 29.4142 53.824 29.3012 53.7804 29.1959C53.7367 29.0905 53.6728 28.9947 53.5921 28.9141C53.5115 28.8334 53.4157 28.7694 53.3103 28.7258C53.2049 28.6822 53.092 28.6597 52.9779 28.6598Z"
          fill="white"/>
    <path d="M64.6339 25.2664L40.3162 13.976C40.2015 13.9232 40.0768 13.8958 39.9506 13.8958C39.8244 13.8958 39.6997 13.9232 39.5851 13.976L15.2673 25.2664C15.1171 25.3361 14.99 25.4473 14.9009 25.5869C14.8117 25.7265 14.7644 25.8887 14.7644 26.0543C14.7644 26.2199 14.8117 26.3821 14.9009 26.5217C14.99 26.6613 15.1171 26.7725 15.2673 26.8422L39.5851 38.1326C39.6996 38.1856 39.8244 38.2131 39.9506 38.2131C40.0769 38.2131 40.2016 38.1856 40.3162 38.1326L64.6339 26.8422C64.7841 26.7725 64.9112 26.6613 65.0004 26.5217C65.0895 26.3821 65.1368 26.2199 65.1368 26.0543C65.1368 25.8887 65.0895 25.7265 65.0004 25.5869C64.9112 25.4473 64.7841 25.3361 64.6339 25.2664Z"
          fill="white"/>
    <path d="M64.2683 33.8707C64.1542 33.8707 64.0413 33.8483 63.9359 33.8046C63.8305 33.761 63.7348 33.697 63.6541 33.6164C63.5735 33.5357 63.5095 33.44 63.4658 33.3346C63.4222 33.2292 63.3998 33.1163 63.3998 33.0022V26.9228H39.9506C39.7202 26.9228 39.4993 26.8313 39.3365 26.6684C39.1736 26.5055 39.0821 26.2846 39.0821 26.0543C39.0821 25.8239 39.1736 25.603 39.3365 25.4402C39.4993 25.2773 39.7202 25.1858 39.9506 25.1858H64.2683C64.3823 25.1858 64.4953 25.2082 64.6007 25.2518C64.7061 25.2955 64.8018 25.3594 64.8825 25.4401C64.9631 25.5208 65.0271 25.6165 65.0707 25.7219C65.1144 25.8273 65.1368 25.9402 65.1368 26.0543V33.0022C65.1368 33.1163 65.1144 33.2292 65.0707 33.3346C65.0271 33.44 64.9631 33.5357 64.8825 33.6164C64.8018 33.697 64.7061 33.761 64.6007 33.8046C64.4953 33.8483 64.3823 33.8707 64.2683 33.8707Z"
          fill="white"/>
    <path d="M64.2683 39.0816C66.1869 39.0816 67.7422 37.5263 67.7422 35.6077C67.7422 33.689 66.1869 32.1337 64.2683 32.1337C62.3497 32.1337 60.7943 33.689 60.7943 35.6077C60.7943 37.5263 62.3497 39.0816 64.2683 39.0816Z"
          fill="white"/>
    <path d="M57.1232 65.9743C55.96 65.6571 54.7149 62.8014 54.7149 59.0569C54.7149 55.3124 55.96 52.4567 57.1232 52.1395C57.3369 52.0812 57.5203 51.9434 57.6358 51.7543C57.7513 51.5653 57.7902 51.3392 57.7445 51.1225C57.6988 50.9057 57.5721 50.7145 57.3901 50.5881C57.2082 50.4617 56.9848 50.4096 56.7657 50.4424L39.9506 52.9682L23.13 50.4416L22.7042 50.3805C22.6633 50.3747 22.6221 50.3719 22.5808 50.372C20.1051 50.372 18.2383 54.1055 18.2383 59.0569C18.2383 64.0083 20.1051 67.7418 22.5808 67.7418C22.6221 67.7419 22.6633 67.7391 22.7042 67.7333L39.9506 65.1457L56.7657 67.6715C56.9848 67.7043 57.2081 67.6522 57.3901 67.5258C57.572 67.3993 57.6988 67.2082 57.7444 66.9914C57.7901 66.7746 57.7512 66.5486 57.6357 66.3595C57.5203 66.1705 57.3369 66.0326 57.1232 65.9743Z"
          fill="white"/>
    <path d="M43.4245 51.2405H36.4766C36.0161 51.241 35.5746 51.4242 35.249 51.7498C34.9233 52.0754 34.7402 52.5169 34.7396 52.9775V68.6103C34.7396 68.7522 34.7744 68.892 34.841 69.0174C34.9075 69.1427 35.0038 69.2499 35.1213 69.3295C35.2388 69.4091 35.3741 69.4587 35.5152 69.4739C35.6563 69.4891 35.799 69.4695 35.9308 69.4168L39.9506 67.8088L43.9703 69.4168C44.1021 69.4695 44.2448 69.4891 44.3859 69.4739C44.527 69.4587 44.6623 69.4091 44.7798 69.3295C44.8974 69.2499 44.9936 69.1427 45.0601 69.0174C45.1267 68.892 45.1615 68.7522 45.1615 68.6103V52.9775C45.161 52.5169 44.9778 52.0754 44.6522 51.7498C44.3265 51.4242 43.885 51.241 43.4245 51.2405Z"
          fill="white"/>
    <path d="M57.3204 50.372C57.2791 50.3719 57.2378 50.3747 57.1969 50.3805L56.7712 50.4416C56.7357 50.4468 56.7006 50.4542 56.666 50.4636C54.4944 51.0565 52.9779 54.5898 52.9779 59.0569C52.9779 63.524 54.4944 67.0574 56.666 67.6502C56.7006 67.6597 56.7357 67.667 56.7712 67.6723L57.1969 67.7333C57.2378 67.7391 57.2791 67.7419 57.3204 67.7418C59.7961 67.7418 61.6628 64.0083 61.6628 59.0569C61.6628 54.1055 59.7961 50.372 57.3204 50.372Z"
          fill="white"/>
    <path d="M55.5834 58.1884H52.9982C52.9853 58.4737 52.9779 58.763 52.9779 59.0569C52.9779 63.524 54.4944 67.0574 56.666 67.6502C56.7006 67.6597 56.7357 67.667 56.7712 67.6723L57.1969 67.7333C57.2378 67.7391 57.2791 67.7419 57.3204 67.7418C57.6172 67.7407 57.9115 67.6859 58.1888 67.58V60.7939C58.1881 60.1031 57.9133 59.4408 57.4249 58.9524C56.9364 58.4639 56.2742 58.1892 55.5834 58.1884Z"
          fill="white"/>
    <defs>
        <linearGradient id="paint0_linear_3_54" x1="41.6875" y1="0" x2="41.6875" y2="83.375"
                        gradientUnits="userSpaceOnUse">
            <stop stop-color="#925FE2"/>
            <stop offset="1" stop-color="#7042C0"/>
        </linearGradient>
    </defs>
</svg>
